<mxfile host="www.draw.io" modified="2020-02-12T22:46:08.225Z" agent="Mozilla/5.0 (Windows NT 10.0; Win64; x64) AppleWebKit/537.36 (KHTML, like Gecko) Chrome/79.0.3945.130 Safari/537.36" etag="NjyJ3_JRcQCh7scKtL3A" version="12.6.8" type="github">
  <diagram id="Fsz1CsS58rb7olredllf" name="Page-1">
    <mxGraphModel dx="1952" dy="614" grid="1" gridSize="10" guides="1" tooltips="1" connect="1" arrows="1" fold="1" page="1" pageScale="1" pageWidth="850" pageHeight="1100" math="0" shadow="0">
      <root>
        <mxCell id="0"/>
        <mxCell id="1" parent="0"/>
        <mxCell id="s8KbxLy5XO2bmnG4WnqS-6" value="User credentials" style="text;html=1;strokeColor=none;fillColor=none;align=center;verticalAlign=middle;whiteSpace=wrap;rounded=0;" parent="1" vertex="1">
          <mxGeometry x="-160" y="530" width="70" height="20" as="geometry"/>
        </mxCell>
        <mxCell id="s8KbxLy5XO2bmnG4WnqS-7" value="" style="endArrow=classic;html=1;" parent="1" edge="1">
          <mxGeometry width="50" height="50" relative="1" as="geometry">
            <mxPoint x="-70" y="520" as="sourcePoint"/>
            <mxPoint x="-100" y="560" as="targetPoint"/>
            <Array as="points"/>
          </mxGeometry>
        </mxCell>
        <mxCell id="s8KbxLy5XO2bmnG4WnqS-17" value="" style="ellipse;whiteSpace=wrap;html=1;aspect=fixed;fillColor=#000000;" parent="1" vertex="1">
          <mxGeometry x="165" y="535" width="10" height="10" as="geometry"/>
        </mxCell>
        <mxCell id="s8KbxLy5XO2bmnG4WnqS-20" value="" style="ellipse;whiteSpace=wrap;html=1;aspect=fixed;" parent="1" vertex="1">
          <mxGeometry x="120" y="505" width="10" height="10" as="geometry"/>
        </mxCell>
        <mxCell id="s8KbxLy5XO2bmnG4WnqS-21" value="" style="ellipse;whiteSpace=wrap;html=1;aspect=fixed;" parent="1" vertex="1">
          <mxGeometry x="-70" y="510" width="10" height="10" as="geometry"/>
        </mxCell>
        <mxCell id="s8KbxLy5XO2bmnG4WnqS-22" value="" style="endArrow=classic;html=1;" parent="1" edge="1">
          <mxGeometry width="50" height="50" relative="1" as="geometry">
            <mxPoint x="120" y="505" as="sourcePoint"/>
            <mxPoint x="100" y="485" as="targetPoint"/>
          </mxGeometry>
        </mxCell>
        <mxCell id="s8KbxLy5XO2bmnG4WnqS-26" value="" style="endArrow=classic;html=1;exitX=0;exitY=1;exitDx=0;exitDy=0;entryX=0.5;entryY=0;entryDx=0;entryDy=0;strokeWidth=2;" parent="1" source="-Iy6iY3MkfDu4HxAnJaf-1" target="HFhkQUspnNheqz7MJiCS-1" edge="1">
          <mxGeometry width="50" height="50" relative="1" as="geometry">
            <mxPoint x="130" y="260" as="sourcePoint"/>
            <mxPoint x="60" y="390" as="targetPoint"/>
          </mxGeometry>
        </mxCell>
        <mxCell id="s8KbxLy5XO2bmnG4WnqS-27" value="" style="endArrow=classic;html=1;entryX=0.5;entryY=0;entryDx=0;entryDy=0;exitX=1;exitY=1;exitDx=0;exitDy=0;strokeWidth=2;" parent="1" source="-Iy6iY3MkfDu4HxAnJaf-2" target="s8KbxLy5XO2bmnG4WnqS-32" edge="1">
          <mxGeometry width="50" height="50" relative="1" as="geometry">
            <mxPoint x="220" y="280" as="sourcePoint"/>
            <mxPoint x="250" y="360" as="targetPoint"/>
          </mxGeometry>
        </mxCell>
        <mxCell id="s8KbxLy5XO2bmnG4WnqS-32" value="1.1&lt;br&gt;Display landing page" style="shape=process;whiteSpace=wrap;html=1;backgroundOutline=1;" parent="1" vertex="1">
          <mxGeometry x="242.5" y="410" width="120" height="60" as="geometry"/>
        </mxCell>
        <mxCell id="s8KbxLy5XO2bmnG4WnqS-34" value="User type variable" style="text;html=1;strokeColor=none;fillColor=none;align=center;verticalAlign=middle;whiteSpace=wrap;rounded=0;" parent="1" vertex="1">
          <mxGeometry x="120" y="460" width="55" height="20" as="geometry"/>
        </mxCell>
        <mxCell id="s8KbxLy5XO2bmnG4WnqS-37" value="" style="endArrow=classic;html=1;" parent="1" edge="1">
          <mxGeometry width="50" height="50" relative="1" as="geometry">
            <mxPoint x="165" y="535" as="sourcePoint"/>
            <mxPoint x="140" y="520" as="targetPoint"/>
          </mxGeometry>
        </mxCell>
        <mxCell id="s8KbxLy5XO2bmnG4WnqS-40" value="Invalid credentials" style="text;html=1;strokeColor=none;fillColor=none;align=center;verticalAlign=middle;whiteSpace=wrap;rounded=0;" parent="1" vertex="1">
          <mxGeometry x="167.5" y="535" width="65" height="20" as="geometry"/>
        </mxCell>
        <mxCell id="s8KbxLy5XO2bmnG4WnqS-65" value="" style="endArrow=classic;html=1;" parent="1" edge="1">
          <mxGeometry width="50" height="50" relative="1" as="geometry">
            <mxPoint x="232.5" y="350" as="sourcePoint"/>
            <mxPoint x="252.5" y="380" as="targetPoint"/>
          </mxGeometry>
        </mxCell>
        <mxCell id="s8KbxLy5XO2bmnG4WnqS-66" value="User type variable" style="text;html=1;strokeColor=none;fillColor=none;align=center;verticalAlign=middle;whiteSpace=wrap;rounded=0;" parent="1" vertex="1">
          <mxGeometry x="177.5" y="360" width="55" height="20" as="geometry"/>
        </mxCell>
        <mxCell id="s8KbxLy5XO2bmnG4WnqS-67" value="" style="ellipse;whiteSpace=wrap;html=1;aspect=fixed;" parent="1" vertex="1">
          <mxGeometry x="222.5" y="340" width="10" height="10" as="geometry"/>
        </mxCell>
        <mxCell id="-Iy6iY3MkfDu4HxAnJaf-1" value="1.0&lt;br&gt;Log in" style="whiteSpace=wrap;html=1;aspect=fixed;" parent="1" vertex="1">
          <mxGeometry x="110" y="200" width="80" height="80" as="geometry"/>
        </mxCell>
        <mxCell id="-Iy6iY3MkfDu4HxAnJaf-2" value="" style="rhombus;whiteSpace=wrap;html=1;" parent="1" vertex="1">
          <mxGeometry x="182.5" y="270" width="20" height="20" as="geometry"/>
        </mxCell>
        <mxCell id="HFhkQUspnNheqz7MJiCS-1" value="1.1&lt;br&gt;Validate credentials" style="whiteSpace=wrap;html=1;aspect=fixed;" vertex="1" parent="1">
          <mxGeometry y="400" width="80" height="80" as="geometry"/>
        </mxCell>
        <mxCell id="HFhkQUspnNheqz7MJiCS-3" value="1.1.4&lt;br&gt;Determine user type" style="whiteSpace=wrap;html=1;aspect=fixed;" vertex="1" parent="1">
          <mxGeometry x="152.5" y="580" width="80" height="80" as="geometry"/>
        </mxCell>
        <mxCell id="HFhkQUspnNheqz7MJiCS-4" value="" style="endArrow=classic;html=1;exitX=0;exitY=1;exitDx=0;exitDy=0;strokeWidth=2;entryX=0.5;entryY=0;entryDx=0;entryDy=0;" edge="1" parent="1" source="HFhkQUspnNheqz7MJiCS-1" target="HFhkQUspnNheqz7MJiCS-6">
          <mxGeometry width="50" height="50" relative="1" as="geometry">
            <mxPoint x="-70" y="550" as="sourcePoint"/>
            <mxPoint x="-50" y="510" as="targetPoint"/>
          </mxGeometry>
        </mxCell>
        <mxCell id="HFhkQUspnNheqz7MJiCS-5" value="" style="endArrow=classic;html=1;exitX=0.75;exitY=1;exitDx=0;exitDy=0;entryX=0.5;entryY=0;entryDx=0;entryDy=0;strokeWidth=2;" edge="1" parent="1" source="HFhkQUspnNheqz7MJiCS-1" target="HFhkQUspnNheqz7MJiCS-3">
          <mxGeometry width="50" height="50" relative="1" as="geometry">
            <mxPoint x="110" y="550" as="sourcePoint"/>
            <mxPoint x="160" y="500" as="targetPoint"/>
          </mxGeometry>
        </mxCell>
        <mxCell id="HFhkQUspnNheqz7MJiCS-6" value="1.1.2&lt;br&gt;Get required information from database" style="shape=process;whiteSpace=wrap;html=1;backgroundOutline=1;" vertex="1" parent="1">
          <mxGeometry x="-170" y="590" width="120" height="60" as="geometry"/>
        </mxCell>
        <mxCell id="HFhkQUspnNheqz7MJiCS-11" value="1.1.3&lt;br&gt;Verify password" style="whiteSpace=wrap;html=1;aspect=fixed;" vertex="1" parent="1">
          <mxGeometry y="580" width="80" height="80" as="geometry"/>
        </mxCell>
        <mxCell id="HFhkQUspnNheqz7MJiCS-14" value="" style="endArrow=classic;html=1;strokeWidth=2;exitX=0.5;exitY=1;exitDx=0;exitDy=0;entryX=0.5;entryY=0;entryDx=0;entryDy=0;" edge="1" parent="1" source="HFhkQUspnNheqz7MJiCS-1" target="HFhkQUspnNheqz7MJiCS-11">
          <mxGeometry width="50" height="50" relative="1" as="geometry">
            <mxPoint x="20" y="560" as="sourcePoint"/>
            <mxPoint x="70" y="510" as="targetPoint"/>
          </mxGeometry>
        </mxCell>
        <mxCell id="HFhkQUspnNheqz7MJiCS-15" value="" style="endArrow=classic;html=1;strokeWidth=1;" edge="1" parent="1">
          <mxGeometry width="50" height="50" relative="1" as="geometry">
            <mxPoint x="24.5" y="510" as="sourcePoint"/>
            <mxPoint x="24.5" y="540" as="targetPoint"/>
          </mxGeometry>
        </mxCell>
        <mxCell id="HFhkQUspnNheqz7MJiCS-21" value="" style="ellipse;whiteSpace=wrap;html=1;aspect=fixed;" vertex="1" parent="1">
          <mxGeometry x="-220" y="545" width="10" height="10" as="geometry"/>
        </mxCell>
        <mxCell id="HFhkQUspnNheqz7MJiCS-22" value="" style="ellipse;whiteSpace=wrap;html=1;aspect=fixed;" vertex="1" parent="1">
          <mxGeometry x="-160" y="495" width="10" height="10" as="geometry"/>
        </mxCell>
        <mxCell id="HFhkQUspnNheqz7MJiCS-23" value="" style="ellipse;whiteSpace=wrap;html=1;aspect=fixed;" vertex="1" parent="1">
          <mxGeometry x="-70" y="550" width="10" height="10" as="geometry"/>
        </mxCell>
        <mxCell id="HFhkQUspnNheqz7MJiCS-24" value="" style="ellipse;whiteSpace=wrap;html=1;aspect=fixed;fillColor=#FFFFFF;" vertex="1" parent="1">
          <mxGeometry x="50" y="540" width="10" height="10" as="geometry"/>
        </mxCell>
        <mxCell id="HFhkQUspnNheqz7MJiCS-25" value="" style="ellipse;whiteSpace=wrap;html=1;aspect=fixed;" vertex="1" parent="1">
          <mxGeometry x="20" y="500" width="10" height="10" as="geometry"/>
        </mxCell>
        <mxCell id="HFhkQUspnNheqz7MJiCS-26" value="Hashed password" style="text;html=1;strokeColor=none;fillColor=none;align=center;verticalAlign=middle;whiteSpace=wrap;rounded=0;" vertex="1" parent="1">
          <mxGeometry x="-10" y="550" width="40" height="20" as="geometry"/>
        </mxCell>
        <mxCell id="HFhkQUspnNheqz7MJiCS-27" value="" style="endArrow=classic;html=1;strokeWidth=1;" edge="1" parent="1">
          <mxGeometry width="50" height="50" relative="1" as="geometry">
            <mxPoint x="54.5" y="540" as="sourcePoint"/>
            <mxPoint x="54.5" y="510" as="targetPoint"/>
          </mxGeometry>
        </mxCell>
        <mxCell id="HFhkQUspnNheqz7MJiCS-28" value="Legitimate password bool" style="text;html=1;strokeColor=none;fillColor=none;align=center;verticalAlign=middle;whiteSpace=wrap;rounded=0;" vertex="1" parent="1">
          <mxGeometry x="70" y="550" width="40" height="20" as="geometry"/>
        </mxCell>
        <mxCell id="HFhkQUspnNheqz7MJiCS-30" value="" style="endArrow=classic;html=1;strokeWidth=1;" edge="1" parent="1">
          <mxGeometry width="50" height="50" relative="1" as="geometry">
            <mxPoint x="-60" y="550" as="sourcePoint"/>
            <mxPoint x="-30" y="520" as="targetPoint"/>
          </mxGeometry>
        </mxCell>
        <mxCell id="HFhkQUspnNheqz7MJiCS-31" value="DB object" style="text;html=1;strokeColor=none;fillColor=none;align=center;verticalAlign=middle;whiteSpace=wrap;rounded=0;" vertex="1" parent="1">
          <mxGeometry x="-70" y="555" width="40" height="20" as="geometry"/>
        </mxCell>
        <mxCell id="HFhkQUspnNheqz7MJiCS-33" value="1.1.1&lt;br&gt;Connect to database" style="shape=process;whiteSpace=wrap;html=1;backgroundOutline=1;fillColor=#FFFFFF;" vertex="1" parent="1">
          <mxGeometry x="-400" y="590" width="120" height="60" as="geometry"/>
        </mxCell>
        <mxCell id="HFhkQUspnNheqz7MJiCS-34" value="" style="endArrow=classic;html=1;strokeWidth=2;entryX=0.5;entryY=0;entryDx=0;entryDy=0;exitX=0;exitY=0.5;exitDx=0;exitDy=0;" edge="1" parent="1" source="HFhkQUspnNheqz7MJiCS-1" target="HFhkQUspnNheqz7MJiCS-33">
          <mxGeometry width="50" height="50" relative="1" as="geometry">
            <mxPoint x="-190" y="490" as="sourcePoint"/>
            <mxPoint x="-140" y="440" as="targetPoint"/>
          </mxGeometry>
        </mxCell>
        <mxCell id="HFhkQUspnNheqz7MJiCS-35" value="" style="endArrow=classic;html=1;strokeWidth=1;" edge="1" parent="1">
          <mxGeometry width="50" height="50" relative="1" as="geometry">
            <mxPoint x="-160" y="500" as="sourcePoint"/>
            <mxPoint x="-200" y="520" as="targetPoint"/>
          </mxGeometry>
        </mxCell>
        <mxCell id="HFhkQUspnNheqz7MJiCS-36" value="Database credentials" style="text;html=1;strokeColor=none;fillColor=none;align=center;verticalAlign=middle;whiteSpace=wrap;rounded=0;" vertex="1" parent="1">
          <mxGeometry x="-225" y="470" width="40" height="20" as="geometry"/>
        </mxCell>
        <mxCell id="HFhkQUspnNheqz7MJiCS-37" value="" style="endArrow=classic;html=1;strokeWidth=1;" edge="1" parent="1">
          <mxGeometry width="50" height="50" relative="1" as="geometry">
            <mxPoint x="-210" y="550" as="sourcePoint"/>
            <mxPoint x="-170" y="530" as="targetPoint"/>
          </mxGeometry>
        </mxCell>
        <mxCell id="HFhkQUspnNheqz7MJiCS-38" value="Database connection" style="text;html=1;strokeColor=none;fillColor=none;align=center;verticalAlign=middle;whiteSpace=wrap;rounded=0;" vertex="1" parent="1">
          <mxGeometry x="-230" y="560" width="40" height="20" as="geometry"/>
        </mxCell>
      </root>
    </mxGraphModel>
  </diagram>
</mxfile>
